<svg xmlns="http://www.w3.org/2000/svg" width="682.667" height="682.667" preserveAspectRatio="xMidYMid meet" version="1.0" viewBox="0 0 512 512"><g fill="#000" stroke="none"><path d="M2311 5110 c-236 -23 -553 -96 -641 -147 -66 -39 -135 -115 -169 -186 -39 -83 -83 -248 -79 -300 l3 -42 -135 -61 c-365 -168 -413 -198 -520 -325 -70 -84 -117 -180 -169 -344 -183 -588 -297 -1412 -332 -2415 -14 -387 -10 -561 14 -607 18 -34 84 -93 104 -93 9 0 13 -21 13 -77 0 -95 12 -142 47 -184 54 -64 79 -69 363 -69 284 0 309 5 362 69 26 31 28 31 72 19 l44 -12 4 -86 c3 -76 7 -93 33 -136 19 -30 49 -60 79 -79 l49 -30 1085 -3 c707 -1 1097 1 1121 8 57 15 102 50 136 104 26 43 31 62 35 139 l5 89 37 15 37 15 33 -38 c61 -70 80 -74 368 -74 284 0 309 5 363 69 35 42 47 89 47 184 0 62 3 77 15 77 9 0 35 20 59 44 66 65 70 98 62 466 -14 645 -59 1194 -142 1730 -43 278 -69 392 -94 412 -31 25 -67 22 -97 -8 -29 -29 -30 -12 16 -269 84 -474 138 -1023 161 -1640 13 -349 13 -551 0 -576 -10 -18 -25 -19 -331 -19 l-320 0 4 1102 c4 1184 3 1154 57 1443 37 194 136 543 170 595 13 20 56 -79 105 -240 44 -149 49 -158 81 -170 32 -12 68 2 90 35 16 25 16 31 -20 153 -68 231 -113 323 -215 434 -84 92 -169 145 -383 242 -260 118 -243 106 -239 154 3 43 -36 201 -68 274 -24 56 -90 142 -132 174 -92 69 -274 125 -536 164 -159 24 -501 34 -652 20z m474 -150 c167 -16 477 -75 523 -99 14 -8 -16 -56 -116 -189 l-55 -73 -86 8 c-112 10 -871 10 -982 0 l-87 -8 -70 93 c-38 52 -80 110 -92 130 l-21 37 43 12 c157 42 376 81 518 92 103 8 322 6 425 -3z m-871 -509 c39 -47 116 -132 171 -190 55 -57 91 -101 80 -97 -11 4 -135 53 -275 108 -272 108 -303 127 -316 193 -9 50 49 243 88 292 7 9 34 -21 95 -105 47 -64 118 -155 157 -201z m1566 269 c31 -62 72 -212 66 -247 -7 -45 -33 -81 -76 -103 -27 -14 -360 -147 -520 -208 -8 -3 31 43 88 102 131 138 241 270 333 400 41 57 77 102 82 99 4 -2 16 -22 27 -43z m-580 -259 l115 -6 -135 -136 c-133 -133 -305 -289 -320 -289 -15 0 -187 156 -320 289 l-135 136 105 6 c146 7 552 8 690 0z m-1370 -192 c25 -20 157 -78 387 -169 l348 -137 5 -427 5 -428 24 -19 c30 -25 62 -24 95 2 l26 20 0 396 c0 372 1 395 18 388 67 -26 177 -26 245 0 16 7 17 -8 17 -219 0 -213 1 -227 20 -246 27 -27 81 -26 106 1 17 19 19 43 24 276 l5 255 349 138 c226 90 362 149 386 169 l39 31 178 -81 c212 -96 298 -141 337 -175 l30 -26 -18 -47 c-85 -220 -159 -479 -196 -686 -55 -303 -53 -257 -59 -1520 -7 -1331 0 -1227 -84 -1266 -41 -18 -85 -19 -1270 -19 -1362 0 -1279 -4 -1311 65 -13 28 -16 79 -16 319 0 273 -1 287 -20 306 -30 30 -83 27 -109 -6 -20 -25 -21 -39 -21 -230 l0 -204 -320 0 -319 0 -12 22 c-20 37 -1 710 31 1138 39 513 113 1039 196 1400 77 331 172 615 194 580 33 -51 132 -399 169 -592 52 -273 54 -308 60 -1094 6 -711 7 -743 25 -763 26 -29 79 -28 106 2 l21 22 -4 750 c-4 782 -5 790 -52 1065 -34 201 -116 490 -201 712 l-18 47 25 21 c44 38 109 72 312 166 111 51 203 93 205 93 2 1 21 -13 42 -30z m-460 -3762 c0 -43 -5 -78 -12 -85 -9 -9 -78 -12 -250 -12 -274 0 -258 -7 -258 104 l0 66 260 0 260 0 0 -73z m3500 4 c0 -105 11 -101 -264 -101 -167 0 -235 3 -244 12 -7 7 -12 42 -12 85 l0 73 260 0 260 0 0 -69z m-890 -243 c-1 -65 -10 -87 -47 -106 -31 -17 -2115 -17 -2146 0 -37 19 -46 41 -47 106 l0 62 1120 0 1120 0 0 -62z" transform="translate(0.000000,512.000000) scale(0.100000,-0.100000)"/><path d="M1955 2061 c-49 -23 -82 -58 -125 -135 -66 -117 -160 -219 -324 -350 -84 -68 -86 -75 -86 -429 0 -255 3 -314 15 -345 20 -47 50 -79 97 -103 36 -18 74 -19 1028 -19 954 0 992 1 1028 19 47 24 77 56 97 103 12 31 15 90 15 345 0 354 -2 361 -86 429 -166 132 -260 234 -328 357 -19 34 -48 75 -63 89 -61 59 -51 58 -665 58 -527 0 -566 -2 -603 -19z m1180 -169 c107 -176 192 -277 317 -377 40 -33 79 -66 86 -74 17 -21 18 -581 0 -599 -17 -17 -1939 -17 -1956 0 -18 18 -17 578 1 599 6 8 44 41 82 72 121 96 246 241 297 342 42 82 -15 75 602 73 l551 -3 20 -33z" transform="translate(0.000000,512.000000) scale(0.100000,-0.100000)"/></g></svg>