<?xml version="1.0" standalone="no"?>
<!DOCTYPE svg PUBLIC "-//W3C//DTD SVG 20010904//EN"
 "http://www.w3.org/TR/2001/REC-SVG-20010904/DTD/svg10.dtd">
<svg version="1.0" xmlns="http://www.w3.org/2000/svg"
 width="512.000000pt" height="512.000000pt" viewBox="0 0 512.000000 512.000000"
 preserveAspectRatio="xMidYMid meet">

<g transform="translate(0.000000,512.000000) scale(0.100000,-0.100000)"
fill="#000000" stroke="none">
<path d="M2375 5003 c-298 -37 -601 -165 -852 -360 -59 -46 -90 -63 -112 -63
-53 0 -231 -38 -327 -70 -406 -136 -657 -416 -741 -827 -26 -126 -23 -451 5
-720 12 -112 22 -205 22 -207 0 -3 -26 -16 -57 -31 -178 -81 -297 -256 -310
-455 -18 -273 190 -523 465 -558 l55 -7 41 -110 c248 -654 795 -1145 1463
-1313 186 -47 333 -65 533 -65 518 0 984 169 1381 502 262 218 494 549 618
881 l39 104 71 12 c142 24 278 111 357 231 115 173 116 408 4 583 -45 71 -140
154 -215 190 -36 17 -65 36 -65 43 0 7 9 98 20 202 49 473 35 684 -64 930
-233 579 -975 1016 -1875 1105 -97 9 -389 12 -456 3z m580 -233 c655 -97 1195
-382 1450 -764 147 -222 196 -431 175 -753 -14 -224 -73 -760 -85 -771 -3 -4
-7 8 -80 268 -26 91 -54 176 -62 188 -27 43 -62 49 -343 55 -963 22 -1694 220
-2042 553 -74 70 -114 124 -144 188 -32 70 -72 99 -124 92 -48 -7 -90 -55 -90
-102 0 -59 -30 -185 -57 -238 -56 -110 -144 -208 -264 -293 -85 -60 -282 -155
-394 -188 -49 -15 -101 -38 -113 -50 -22 -20 -67 -162 -143 -439 -6 -21 -12
-36 -14 -34 -6 6 -50 367 -71 573 -22 229 -22 485 0 589 40 185 105 313 219
433 149 156 393 268 630 288 125 10 129 12 228 91 229 184 507 303 789 338 82
10 401 -4 535 -24z m-1121 -1393 c233 -204 525 -344 931 -446 345 -86 711
-133 1178 -150 131 -5 240 -11 242 -13 2 -2 58 -194 125 -428 l122 -425 -21
-77 c-117 -439 -422 -854 -811 -1106 -189 -123 -424 -217 -665 -269 -122 -26
-145 -27 -375 -27 -230 0 -253 1 -375 27 -709 151 -1257 648 -1461 1326 l-37
122 123 432 c68 238 128 437 134 443 6 6 52 25 101 44 209 76 393 188 521 315
80 78 165 195 186 255 5 17 12 30 15 30 3 0 33 -24 67 -53z m-1423 -913 c5
-33 14 -129 19 -214 6 -85 16 -192 23 -237 10 -58 10 -83 3 -83 -33 0 -117 53
-158 99 -108 119 -110 298 -5 417 38 43 96 88 104 80 2 -2 8 -30 14 -62z
m4410 -13 c99 -111 105 -288 14 -407 -30 -39 -116 -100 -156 -109 l-26 -6 14
83 c7 46 18 153 23 238 6 85 15 178 20 205 5 28 9 56 9 63 1 21 57 -16 102
-67z"/>
<path d="M1602 2542 c-66 -24 -118 -65 -159 -126 -43 -63 -56 -116 -51 -201 8
-116 71 -211 176 -262 48 -24 69 -28 137 -28 105 1 167 27 234 101 114 125
114 303 0 428 -85 94 -221 129 -337 88z m142 -206 c93 -39 87 -164 -8 -196
-64 -21 -136 33 -136 100 0 36 30 81 63 95 40 18 41 18 81 1z"/>
<path d="M3325 2547 c-66 -22 -99 -43 -142 -90 -52 -56 -68 -87 -83 -159 -28
-140 50 -288 185 -350 76 -35 191 -33 267 5 62 30 115 83 150 149 19 36 23 58
23 138 0 106 -15 147 -81 220 -73 80 -218 120 -319 87z m130 -211 c35 -15 65
-59 65 -96 0 -67 -72 -121 -136 -100 -94 31 -101 156 -10 196 39 17 40 17 81
0z"/>
<path d="M1959 1461 c-24 -24 -29 -38 -29 -76 0 -43 4 -50 55 -99 313 -298
847 -295 1158 8 43 41 47 50 47 91 0 63 -40 105 -99 105 -33 0 -50 -9 -108
-55 -132 -107 -262 -155 -423 -155 -154 0 -301 51 -403 140 -67 58 -89 70
-130 70 -29 0 -46 -7 -68 -29z"/>
</g>
</svg>
