<svg xmlns="http://www.w3.org/2000/svg" width="682.667" height="682.667" preserveAspectRatio="xMidYMid meet" version="1.0" viewBox="0 0 512 512"><g fill="#000" stroke="none"><path d="M1417 4915 c-656 -220 -672 -227 -732 -315 -43 -64 -685 -1641 -685 -1682 1 -46 32 -111 66 -135 16 -11 174 -84 351 -162 258 -115 330 -143 366 -143 101 0 128 33 234 286 l88 211 5 -1395 c5 -1316 6 -1397 23 -1431 24 -47 71 -95 121 -122 l41 -22 1265 0 c1227 0 1266 1 1304 19 47 24 98 75 123 124 17 35 18 106 23 1432 l5 1395 88 -211 c88 -210 109 -245 165 -274 59 -30 99 -18 435 130 177 79 335 152 351 163 34 24 65 89 66 135 0 36 -628 1588 -675 1668 -14 25 -48 62 -75 83 -44 35 -114 61 -667 245 l-618 206 -530 -1 -530 -1 -608 -203z m1553 30 c0 -16 -32 -80 -56 -111 -37 -48 -98 -88 -175 -115 -52 -18 -86 -22 -179 -22 -93 0 -127 4 -179 22 -77 27 -138 67 -175 115 -24 31 -56 95 -56 111 0 3 185 5 410 5 226 0 410 -2 410 -5z m-976 -75 c43 -119 138 -225 251 -280 101 -48 176 -63 315 -63 139 0 213 15 316 63 110 53 204 157 249 276 10 27 19 50 20 51 3 5 1071 -354 1102 -370 17 -9 40 -31 51 -49 11 -18 124 -287 250 -598 127 -311 240 -586 251 -612 l20 -46 -306 -141 c-169 -78 -307 -140 -308 -139 -1 2 -45 108 -98 237 l-97 233 0 219 c0 212 -1 219 -22 243 -35 38 -86 39 -123 1 l-25 -24 0 -1636 0 -1635 -1280 0 -1280 0 0 1635 0 1636 -25 24 c-37 38 -88 37 -122 -1 -22 -24 -23 -31 -23 -243 l0 -219 -97 -233 c-53 -129 -97 -235 -98 -236 -1 -2 -139 61 -307 138 l-305 141 64 156 c35 87 150 368 256 626 147 361 198 477 222 500 25 25 114 58 575 212 300 100 547 183 551 183 3 1 13 -22 23 -49z m-1446 -1929 c156 -72 287 -133 292 -136 8 -5 -50 -155 -61 -155 -6 0 -559 244 -591 261 -15 8 -14 14 9 71 35 87 43 100 56 95 7 -3 139 -64 295 -136z m4371 51 l30 -72 -27 -14 c-63 -32 -583 -258 -586 -255 -8 12 -56 132 -56 143 0 14 592 288 602 278 4 -4 21 -40 37 -80z m-1079 -2663 c0 -98 -1 -101 -29 -130 l-29 -29 -1222 0 -1222 0 -29 29 c-28 29 -29 32 -29 130 l0 101 1280 0 1280 0 0 -101z" transform="translate(0.000000,512.000000) scale(0.100000,-0.100000)"/><path d="M2380 3743 c-55 -21 -74 -51 -230 -364 -109 -217 -160 -329 -160 -351 0 -39 30 -92 62 -109 13 -7 55 -15 95 -18 l72 -6 -150 -209 c-134 -188 -149 -213 -149 -250 0 -45 27 -99 58 -115 11 -6 38 -13 60 -17 l41 -6 -139 -278 c-76 -152 -142 -293 -145 -312 -10 -50 22 -118 67 -146 60 -37 113 -30 199 26 227 150 939 648 967 677 25 27 32 43 32 75 0 75 -49 130 -115 130 -14 0 -25 3 -25 8 0 4 34 48 76 97 192 229 194 232 194 284 0 80 -58 131 -150 131 -35 0 -40 3 -36 18 3 10 58 135 122 277 109 245 115 263 111 313 -4 59 -26 95 -77 130 -33 22 -35 22 -399 21 -201 0 -373 -3 -381 -6z m671 -205 c-10 -24 -71 -162 -136 -307 -104 -235 -117 -268 -112 -305 8 -60 61 -106 122 -106 25 0 45 -2 45 -5 0 -3 -60 -78 -134 -166 -148 -177 -160 -203 -129 -267 10 -20 32 -46 50 -57 18 -11 32 -22 32 -25 0 -6 -764 -533 -780 -538 -5 -2 54 124 132 281 129 259 141 287 135 321 -10 55 -54 98 -105 105 l-43 6 108 150 c191 267 194 272 194 318 -1 90 -49 127 -162 127 -43 0 -78 2 -78 5 0 3 56 118 125 255 l125 250 315 0 314 0 -18 -42z" transform="translate(0.000000,512.000000) scale(0.100000,-0.100000)"/></g></svg>